name analog
datacolumns 19
datarows 46
range 0.0 0.0225
endheader
time	ground_force_vx	ground_force_vy	ground_force_vz	ground_force_px	ground_force_py	ground_force_pz	l_ground_force_vx	l_ground_force_vy	l_ground_force_vz	l_ground_force_px	l_ground_force_py	l_ground_force_pz	ground_torque_x	ground_torque_y	ground_torque_z	l_ground_torque_x	l_ground_torque_y	l_ground_torque_z
0.0	-0.0	-0.0	-0.0	1.9626312255859373	12.933554649353027	-367.3835754394531	-2.690830945968628	-15.230563163757324	-363.3117370605469	-0.0	-0.0	-0.0	-0.0	-0.0	-0.0	107468.9375	6348.92578125	-3783.04541015625
0.0005	-0.0	-0.0	-0.0	2.102742910385132	13.320210456848145	-366.6766052246094	-2.907654047012329	-15.014686584472656	-362.9624328613281	-0.0	-0.0	-0.0	-0.0	-0.0	-0.0	107735.4453125	6446.70068359375	-3730.36083984375
0.001	-0.0	-0.0	-0.0	1.596262812614441	12.874584197998049	-367.4271545410156	-2.819203615188598	-14.92636489868164	-362.0317687988281	-0.0	-0.0	-0.0	-0.0	-0.0	-0.0	107392.5546875	6529.00244140625	-3753.396484375
0.0015	-0.0	-0.0	-0.0	1.8545233011245728	12.87462329864502	-368.95257568359375	-3.144386053085327	-15.26034927368164	-361.4100646972656	-0.0	-0.0	-0.0	-0.0	-0.0	-0.0	107278.640625	6684.974609375	-3878.890380859375
0.002	-0.0	-0.0	-0.0	1.4461102485656738	13.615793228149414	-366.2104797363281	-2.572612762451172	-15.32859992980957	-361.2962646484375	-0.0	-0.0	-0.0	-0.0	-0.0	-0.0	107091.5234375	6438.87109375	-3759.831787109375
0.0025	-0.0	-0.0	-0.0	1.387416958808899	13.428074836730955	-367.5021667480469	-2.8578524589538574	-15.083984375	-360.9475708007813	-0.0	-0.0	-0.0	-0.0	-0.0	-0.0	106938.6328125	6384.505859375	-3869.0341796875
0.003	-0.0	-0.0	-0.0	1.467352271080017	13.400274276733398	-368.36669921875	-2.829256772994995	-15.456295013427734	-360.4430236816406	-0.0	-0.0	-0.0	-0.0	-0.0	-0.0	106775.0	6896.0205078125	-3829.42626953125
0.0035	-0.0	-0.0	-0.0	1.5566015243530271	13.61863899230957	-368.6339721679688	-3.095466375350952	-15.240175247192385	-361.1339111328125	-0.0	-0.0	-0.0	-0.0	-0.0	-0.0	106454.4375	6855.39892578125	-3931.83740234375
0.004	-0.0	-0.0	-0.0	1.673111915588379	13.178510665893556	-367.6962890625	-3.3126537799835205	-15.161108016967772	-360.5174255371094	-0.0	-0.0	-0.0	-0.0	-0.0	-0.0	106478.96875	6791.080078125	-3856.289794921875
0.0045000000000000005	-0.0	-0.0	-0.0	1.4183322191238403	13.08017349243164	-368.8428039550781	-3.349861860275269	-15.191329956054688	-359.8555603027344	-0.0	-0.0	-0.0	-0.0	-0.0	-0.0	106188.3515625	6828.66455078125	-3819.622314453125
0.005	-0.0	-0.0	-0.0	1.5878727436065674	13.556771278381348	-369.62054443359375	-3.380215644836426	-14.993438720703123	-359.24078369140625	-0.0	-0.0	-0.0	-0.0	-0.0	-0.0	106183.8671875	6780.7314453125	-3951.529541015625
0.0055	-0.0	-0.0	-0.0	1.7216413021087646	13.55669403076172	-369.8497314453125	-3.037700891494751	-14.917276382446287	-358.3502502441406	-0.0	-0.0	-0.0	-0.0	-0.0	-0.0	106010.5859375	7060.2744140625	-3921.602783203125
0.006	-0.0	-0.0	-0.0	1.8067429065704343	13.383251190185549	-369.7794189453125	-3.224327802658081	-14.92636489868164	-358.0371398925781	-0.0	-0.0	-0.0	-0.0	-0.0	-0.0	106067.546875	6809.0341796875	-3878.75927734375
0.006500000000000001	-0.0	-0.0	-0.0	2.10957407951355	13.547821044921877	-370.4164733886719	-3.3221545219421387	-15.142688751220703	-357.4098205566406	-0.0	-0.0	-0.0	-0.0	-0.0	-0.0	105936.328125	6655.0595703125	-3987.20947265625
0.007	-0.0	-0.0	-0.0	1.8560733795166016	13.142401695251465	-371.510986328125	-3.7258529663085938	-15.00161838531494	-356.8681030273437	-0.0	-0.0	-0.0	-0.0	-0.0	-0.0	105865.8359375	6955.4716796875	-3938.437255859375
0.0075	-0.0	-0.0	-0.0	2.497894287109375	13.11079216003418	-372.4453430175781	-3.4774811267852783	-14.789462089538574	-357.3741760253906	-0.0	-0.0	-0.0	-0.0	-0.0	-0.0	105695.9296875	6847.15234375	-3918.913330078125
0.008	-0.0	-0.0	-0.0	2.14105224609375	13.231592178344728	-371.2598571777344	-3.3622066974639893	-15.014686584472656	-357.4432983398437	-0.0	-0.0	-0.0	-0.0	-0.0	-0.0	105553.328125	6905.96923828125	-3967.826171875
0.0085	-0.0	-0.0	-0.0	2.060317277908325	12.656517028808594	-373.2105102539063	-3.579698085784912	-14.767096519470217	-357.8117370605469	-0.0	-0.0	-0.0	-0.0	-0.0	-0.0	105757.4609375	7094.8544921875	-3948.696044921875
0.009000000000000001	-0.0	-0.0	-0.0	1.9373592138290403	12.875134468078612	-370.6456909179688	-3.056184768676758	-14.798200607299805	-357.2845153808594	-0.0	-0.0	-0.0	-0.0	-0.0	-0.0	105811.8203125	7045.009765625	-3899.501708984375
0.0095	-0.0	-0.0	-0.0	1.9626312255859373	12.923908233642578	-369.6523742675781	-3.0790855884552	-15.054567337036133	-357.56512451171875	-0.0	-0.0	-0.0	-0.0	-0.0	-0.0	105581.2890625	7028.84814453125	-3897.752685546875
0.01	-0.0	-0.0	-0.0	2.14105224609375	13.069995880126951	-370.7734680175781	-3.0733022689819336	-15.031651496887209	-357.8133544921875	-0.0	-0.0	-0.0	-0.0	-0.0	-0.0	105867.5703125	7017.955078125	-3878.585693359375
0.0105	-0.0	-0.0	-0.0	1.9708365201950075	12.77843952178955	-370.2604370117188	-2.8387451171875	-14.92636489868164	-358.0383605957031	-0.0	-0.0	-0.0	-0.0	-0.0	-0.0	105945.1015625	7062.84130859375	-3912.9794921875
0.011	-0.0	-0.0	-0.0	2.1005167961120605	12.891541481018066	-369.87542724609375	-3.201979875564575	-14.94963836669922	-358.8948669433594	-0.0	-0.0	-0.0	-0.0	-0.0	-0.0	106079.0546875	6941.93701171875	-3967.626708984375
0.0115	-0.0	-0.0	-0.0	2.1574411392211914	13.126333236694336	-369.0081481933594	-3.210216999053955	-15.167863845825195	-358.03863525390625	-0.0	-0.0	-0.0	-0.0	-0.0	-0.0	106030.71875	6946.8173828125	-3919.0087890625
0.012	-0.0	-0.0	-0.0	1.6870155334472656	12.956507682800291	-369.7794189453125	-3.265824794769287	-15.151269912719728	-358.70465087890625	-0.0	-0.0	-0.0	-0.0	-0.0	-0.0	106228.296875	6991.33154296875	-3894.91455078125
0.0125	-0.0	-0.0	-0.0	1.840715169906616	13.134844779968262	-370.9017333984375	-3.1533260345458984	-15.166878700256348	-358.9923095703125	-0.0	-0.0	-0.0	-0.0	-0.0	-0.0	106085.125	7029.4951171875	-3929.736572265625
0.013000000000000001	-0.0	-0.0	-0.0	2.375861644744873	13.272581100463867	-369.7794189453125	-2.975865840911865	-15.376047134399414	-359.720947265625	-0.0	-0.0	-0.0	-0.0	-0.0	-0.0	106439.453125	6896.84814453125	-3924.386962890625
0.0135	-0.0	-0.0	-0.0	2.051841735839844	13.053718566894531	-369.7485961914063	-3.137005090713501	-15.08701515197754	-359.9436950683594	-0.0	-0.0	-0.0	-0.0	-0.0	-0.0	106513.65625	6777.01806640625	-3940.637451171875
0.014	-0.0	-0.0	-0.0	1.8172252178192136	12.964613914489746	-369.9712829589844	-2.959839344024658	-15.464241027832031	-359.8478698730469	-0.0	-0.0	-0.0	-0.0	-0.0	-0.0	106576.3984375	7019.51220703125	-4070.00634765625
0.0145	-0.0	-0.0	-0.0	2.125753879547119	13.410304069519045	-369.7491149902344	-3.515932083129883	-15.31200885772705	-360.5802917480469	-0.0	-0.0	-0.0	-0.0	-0.0	-0.0	106736.46875	6957.322265625	-4043.342041015625
0.015	-0.0	-0.0	-0.0	1.977774143218994	13.046257019042969	-368.5282897949219	-2.7422075271606445	-15.736845016479492	-360.8327941894531	-0.0	-0.0	-0.0	-0.0	-0.0	-0.0	106922.203125	7048.15283203125	-4005.358154296875
0.0155	-0.0	-0.0	-0.0	1.5832020044326782	13.18377685546875	-370.0007019042969	-3.048845052719116	-15.496580123901367	-359.975341796875	-0.0	-0.0	-0.0	-0.0	-0.0	-0.0	106727.625	6940.255859375	-3870.753662109375
0.016	-0.0	-0.0	-0.0	2.062915802001953	13.013038635253906	-370.2059326171875	-3.0469963550567627	-15.713586807250977	-361.9108276367188	-0.0	-0.0	-0.0	-0.0	-0.0	-0.0	106831.21875	7168.408203125	-3924.388671875
0.0165	-0.0	-0.0	-0.0	1.9143390655517576	12.83477783203125	-368.2790832519531	-2.782944440841675	-15.272054672241213	-362.2898559570313	-0.0	-0.0	-0.0	-0.0	-0.0	-0.0	106916.28125	7018.5703125	-4005.400634765625
0.017	-0.0	-0.0	-0.0	1.784210205078125	12.437349319458008	-368.7198486328125	-3.031325578689575	-15.617846488952637	-362.0403747558594	-0.0	-0.0	-0.0	-0.0	-0.0	-0.0	107054.0703125	6936.57666015625	-3935.3408203125
0.0175	-0.0	-0.0	-0.0	1.5985442399978638	12.894954681396484	-367.1448974609375	-2.9199538230896	-15.599981307983398	-361.93994140625	-0.0	-0.0	-0.0	-0.0	-0.0	-0.0	107052.921875	7136.87939453125	-3843.769287109375
0.018000000000000002	-0.0	-0.0	-0.0	1.2489471435546875	12.61553192138672	-366.6780700683594	-2.9755237102508545	-15.761724472045898	-362.2009887695313	-0.0	-0.0	-0.0	-0.0	-0.0	-0.0	107262.6328125	7177.21044921875	-3905.699462890625
0.0185	-0.0	-0.0	-0.0	1.5718398094177246	12.718826293945312	-365.2162170410156	-2.4691781997680664	-15.831570625305176	-362.2593078613281	-0.0	-0.0	-0.0	-0.0	-0.0	-0.0	106796.25	6999.1455078125	-3942.4169921875
0.019	-0.0	-0.0	-0.0	1.7290472984313965	12.540401458740234	-364.346923828125	-2.886748790740967	-15.577880859375	-362.2591552734375	-0.0	-0.0	-0.0	-0.0	-0.0	-0.0	106958.5234375	6976.01318359375	-3905.611083984375
0.0195	-0.0	-0.0	-0.0	1.3932039737701416	13.054126739501951	-366.4104309082031	-2.7644734382629395	-15.85014820098877	-361.53228759765625	-0.0	-0.0	-0.0	-0.0	-0.0	-0.0	106873.4765625	6973.07080078125	-3848.692138671875
0.02	-0.0	-0.0	-0.0	1.2969939708709717	12.354875564575195	-365.21533203125	-2.75003433227539	-15.72126007080078	-360.6455078125	-0.0	-0.0	-0.0	-0.0	-0.0	-0.0	107119.0	7058.61083984375	-3832.610107421875
0.0205	-0.0	-0.0	-0.0	1.5989575386047363	12.45777988433838	-365.3240966796875	-2.4839019775390625	-15.46335506439209	-360.8621520996094	-0.0	-0.0	-0.0	-0.0	-0.0	-0.0	106865.90625	6988.4990234375	-3832.35546875
0.021	-0.0	-0.0	-0.0	1.7362279891967771	12.663265228271484	-365.9211730957031	-2.695158004760742	-15.768912315368652	-360.9172058105469	-0.0	-0.0	-0.0	-0.0	-0.0	-0.0	106766.5234375	7088.62744140625	-3809.54248046875
0.021500000000000002	-0.0	-0.0	-0.0	1.386101007461548	12.443696022033691	-365.6205139160156	-2.6412465572357178	-15.606042861938477	-360.5917053222656	-0.0	-0.0	-0.0	-0.0	-0.0	-0.0	106939.7265625	6899.39599609375	-3830.18408203125
0.022	-0.0	-0.0	-0.0	1.660345196723938	12.341246604919434	-366.7379760742188	-2.8387451171875	-15.53090476989746	-362.2312622070313	-0.0	-0.0	-0.0	-0.0	-0.0	-0.0	106855.6953125	6942.53173828125	-3844.0029296875
0.0225	-0.0	-0.0	-0.0	1.392597198486328	12.752197265625	-366.8501586914063	-2.668132305145264	-15.531058311462402	-361.88226318359375	-0.0	-0.0	-0.0	-0.0	-0.0	-0.0	107012.7578125	6902.65966796875	-3896.385498046875
